<svg xmlns="http://www.w3.org/2000/svg" width="1600" height="900" viewBox="0 0 1600 900">
<defs>
  <linearGradient id="g1" x1="0" y1="0" x2="1" y2="1">
    <stop offset="0%" stop-color="#6D28D9"/>
    <stop offset="50%" stop-color="#2563EB"/>
    <stop offset="100%" stop-color="#06B6D4"/>
  </linearGradient>
  <linearGradient id="g2" x1="0" y1="0" x2="1" y2="0">
    <stop offset="0%" stop-color="#F97316"/>
    <stop offset="100%" stop-color="#F43F5E"/>
  </linearGradient>
  <linearGradient id="g3" x1="0" y1="0" x2="1" y2="0">
    <stop offset="0%" stop-color="#10B981"/>
    <stop offset="100%" stop-color="#14B8A6"/>
  </linearGradient>
  <filter id="shadow" x="-20%" y="-20%" width="140%" height="140%">
    <feDropShadow dx="0" dy="10" stdDeviation="12" flood-color="#0F172A" flood-opacity="0.18"/>
  </filter>
</defs>
<rect width="100%" height="100%" fill="#F8FAFC"/>

<text x="800" y="92" text-anchor="middle" font-family="Arial" font-size="60" font-weight="800" fill="#111827">
  Python Prompt Engineering Pipeline
</text>
<text x="800" y="145" text-anchor="middle" font-family="Arial" font-size="28" fill="#475569">
  Turning normal Python data into a reusable AI workflow
</text>

<rect x="110" y="310" width="220" height="260" rx="34" fill="#FFFFFF" stroke="#7C3AED" stroke-width="5" filter="url(#shadow)"/>
<circle cx="220" cy="370" r="38" fill="#7C3AED"/>
<text x="220" y="383" text-anchor="middle" font-family="Arial" font-size="32" font-weight="800" fill="#FFFFFF">1</text>
<text x="220" y="455" text-anchor="middle" font-family="Arial" font-size="27" font-weight="800" fill="#7C3AED">USER INPUT</text>
<text x="220" y="505" text-anchor="middle" font-family="Arial" font-size="22" fill="#475569">topic, level, ticket</text>

<path d="M345 440 L390 440" stroke="#94A3B8" stroke-width="10" stroke-linecap="round"/>
<polygon points="382,425 408,440 382,455" fill="#94A3B8"/>

<rect x="405" y="310" width="220" height="260" rx="34" fill="#FFFFFF" stroke="#2563EB" stroke-width="5" filter="url(#shadow)"/>
<circle cx="515" cy="370" r="38" fill="#2563EB"/>
<text x="515" y="383" text-anchor="middle" font-family="Arial" font-size="32" font-weight="800" fill="#FFFFFF">2</text>
<text x="515" y="455" text-anchor="middle" font-family="Arial" font-size="27" font-weight="800" fill="#2563EB">PYTHON VARIABLES</text>
<text x="515" y="505" text-anchor="middle" font-family="Arial" font-size="22" fill="#475569">strings and data</text>

<path d="M640 440 L685 440" stroke="#94A3B8" stroke-width="10" stroke-linecap="round"/>
<polygon points="677,425 703,440 677,455" fill="#94A3B8"/>

<rect x="700" y="310" width="220" height="260" rx="34" fill="#FFFFFF" stroke="#EA580C" stroke-width="5" filter="url(#shadow)"/>
<circle cx="810" cy="370" r="38" fill="#EA580C"/>
<text x="810" y="383" text-anchor="middle" font-family="Arial" font-size="32" font-weight="800" fill="#FFFFFF">3</text>
<text x="810" y="455" text-anchor="middle" font-family="Arial" font-size="27" font-weight="800" fill="#EA580C">PROMPT TEMPLATE</text>
<text x="810" y="505" text-anchor="middle" font-family="Arial" font-size="22" fill="#475569">f-string + instructions</text>

<path d="M935 440 L980 440" stroke="#94A3B8" stroke-width="10" stroke-linecap="round"/>
<polygon points="972,425 998,440 972,455" fill="#94A3B8"/>

<rect x="995" y="310" width="220" height="260" rx="34" fill="#FFFFFF" stroke="#059669" stroke-width="5" filter="url(#shadow)"/>
<circle cx="1105" cy="370" r="38" fill="#059669"/>
<text x="1105" y="383" text-anchor="middle" font-family="Arial" font-size="32" font-weight="800" fill="#FFFFFF">4</text>
<text x="1105" y="455" text-anchor="middle" font-family="Arial" font-size="27" font-weight="800" fill="#059669">LLM</text>
<text x="1105" y="505" text-anchor="middle" font-family="Arial" font-size="22" fill="#475569">local or cloud model</text>

<path d="M1230 440 L1275 440" stroke="#94A3B8" stroke-width="10" stroke-linecap="round"/>
<polygon points="1267,425 1293,440 1267,455" fill="#94A3B8"/>

<rect x="1290" y="310" width="220" height="260" rx="34" fill="#FFFFFF" stroke="#E11D48" stroke-width="5" filter="url(#shadow)"/>
<circle cx="1400" cy="370" r="38" fill="#E11D48"/>
<text x="1400" y="383" text-anchor="middle" font-family="Arial" font-size="32" font-weight="800" fill="#FFFFFF">5</text>
<text x="1400" y="455" text-anchor="middle" font-family="Arial" font-size="27" font-weight="800" fill="#E11D48">OUTPUT</text>
<text x="1400" y="505" text-anchor="middle" font-family="Arial" font-size="22" fill="#475569">answer / category / data</text>

<rect x="250" y="675" width="1100" height="110" rx="30" fill="url(#g1)"/>
<text x="800" y="743" text-anchor="middle" font-family="Arial" font-size="34" font-weight="800" fill="#FFFFFF">
  Python + Prompt Template + Evaluation = Reusable LLM Application
</text>

</svg>